<?xml version="1.0" encoding="UTF-8"?>
<!DOCTYPE svg PUBLIC "-//W3C//DTD SVG 1.1//EN" "http://www.w3.org/Graphics/SVG/1.1/DTD/svg11.dtd">
<svg xmlns="http://www.w3.org/2000/svg" version="1.1" width="512px" height="512px" style="shape-rendering:geometricPrecision; text-rendering:geometricPrecision; image-rendering:optimizeQuality; fill-rule:evenodd; clip-rule:evenodd" xmlns:xlink="http://www.w3.org/1999/xlink">
<g><path style="opacity:0.945" fill="#000000" d="M 103.5,-0.5 C 204.833,-0.5 306.167,-0.5 407.5,-0.5C 417.662,2.82473 424.829,9.4914 429,19.5C 430.453,35.0957 430.953,50.7623 430.5,66.5C 441.838,66.3335 453.172,66.5001 464.5,67C 483.77,69.2698 495.936,79.7698 501,98.5C 501.991,204.876 501.658,311.21 500,417.5C 494.097,433.74 482.597,442.907 465.5,445C 413.168,445.5 360.834,445.667 308.5,445.5C 314.167,462.167 319.833,478.833 325.5,495.5C 338.171,495.333 350.838,495.5 363.5,496C 370.018,501.144 370.018,506.311 363.5,511.5C 291.5,511.5 219.5,511.5 147.5,511.5C 140.982,506.311 140.982,501.144 147.5,496C 160.162,495.5 172.829,495.333 185.5,495.5C 191.167,478.833 196.833,462.167 202.5,445.5C 150.166,445.667 97.8323,445.5 45.5,445C 28.4026,442.907 16.9026,433.74 11,417.5C 9.34194,311.21 9.0086,204.876 10,98.5C 15.0635,79.7698 27.2302,69.2698 46.5,67C 57.8284,66.5001 69.1618,66.3335 80.5,66.5C 80.0467,50.7623 80.5467,35.0957 82,19.5C 86.1713,9.4914 93.338,2.82473 103.5,-0.5 Z M 111.5,15.5 C 207.501,15.3333 303.501,15.5 399.5,16C 405.626,16.7839 410.126,19.9506 413,25.5C 413.5,35.4944 413.666,45.4944 413.5,55.5C 308.167,55.5 202.833,55.5 97.5,55.5C 97.3335,45.4944 97.5002,35.4944 98,25.5C 101.033,19.939 105.533,16.6056 111.5,15.5 Z M 97.5,72.5 C 202.833,72.5 308.167,72.5 413.5,72.5C 413.667,148.834 413.5,225.167 413,301.5C 410.673,306.423 406.84,309.59 401.5,311C 375.494,311.833 349.494,311.667 323.5,310.5C 324.362,307.401 325.695,304.567 327.5,302C 339.539,299.969 344.539,292.969 342.5,281C 344.831,268.64 339.831,261.64 327.5,260C 325.359,255.246 323.025,250.579 320.5,246C 325.947,239.312 326.78,232.145 323,224.5C 318.425,219.254 313.258,214.754 307.5,211C 301.312,210.338 295.645,211.838 290.5,215.5C 286.289,213.374 281.956,211.541 277.5,210C 275.736,205.035 273.402,200.369 270.5,196C 269.167,195.333 267.833,194.667 266.5,194C 259.167,193.333 251.833,193.333 244.5,194C 243.167,194.667 241.833,195.333 240.5,196C 237.598,200.369 235.264,205.035 233.5,210C 229.044,211.541 224.711,213.374 220.5,215.5C 213.923,210.289 206.923,209.455 199.5,213C 194.254,217.575 189.754,222.742 186,228.5C 184.682,235.038 186.182,240.872 190.5,246C 187.988,249.858 186.155,254.025 185,258.5C 180.246,260.641 175.579,262.975 171,265.5C 170.333,266.833 169.667,268.167 169,269.5C 168.833,273.333 168.667,277.167 168.5,281C 166.461,292.969 171.461,299.969 183.5,302C 185.305,304.567 186.638,307.401 187.5,310.5C 161.506,311.667 135.506,311.833 109.5,311C 103.841,310.004 100.007,306.838 98,301.5C 97.5,225.167 97.3333,148.834 97.5,72.5 Z M 46.5,83.5 C 57.8333,83.5 69.1667,83.5 80.5,83.5C 80.5,90.8333 80.5,98.1667 80.5,105.5C 72.8261,105.334 65.1594,105.5 57.5,106C 53.6051,106.933 51.4384,109.433 51,113.5C 50.3333,208.5 50.3333,303.5 51,398.5C 51.4384,402.567 53.6051,405.067 57.5,406C 189.5,406.667 321.5,406.667 453.5,406C 455.848,405.654 457.681,404.487 459,402.5C 460.657,306.21 460.99,209.877 460,113.5C 459.562,109.433 457.395,106.933 453.5,106C 445.841,105.5 438.174,105.334 430.5,105.5C 430.5,98.1667 430.5,90.8333 430.5,83.5C 441.838,83.3335 453.172,83.5001 464.5,84C 474.806,85.6415 481.306,91.4748 484,101.5C 484.667,204.833 484.667,308.167 484,411.5C 480.864,420.969 474.364,426.469 464.5,428C 325.167,428.667 185.833,428.667 46.5,428C 36.6363,426.469 30.1363,420.969 27,411.5C 26.3333,308.167 26.3333,204.833 27,101.5C 29.8669,91.463 36.3669,85.463 46.5,83.5 Z M 67.5,122.5 C 71.8333,122.5 76.1667,122.5 80.5,122.5C 80.3333,183.168 80.5,243.834 81,304.5C 85.2693,318.105 94.436,325.938 108.5,328C 134.165,328.5 159.831,328.667 185.5,328.5C 185.259,331.794 186.092,334.794 188,337.5C 192.199,342.034 196.699,346.201 201.5,350C 203.5,350.5 205.5,351 207.5,351.5C 211.944,350.111 216.277,348.444 220.5,346.5C 224.979,348.741 229.645,350.408 234.5,351.5C 235.865,364.203 242.865,369.87 255.5,368.5C 268.135,369.87 275.135,364.203 276.5,351.5C 281.461,350.273 286.294,348.606 291,346.5C 295.003,348.585 299.169,350.252 303.5,351.5C 305.5,351 307.5,350.5 309.5,350C 314.301,346.201 318.801,342.034 323,337.5C 324.908,334.794 325.741,331.794 325.5,328.5C 351.169,328.667 376.835,328.5 402.5,328C 416.564,325.938 425.731,318.105 430,304.5C 430.5,243.834 430.667,183.168 430.5,122.5C 434.833,122.5 439.167,122.5 443.5,122.5C 443.5,211.5 443.5,300.5 443.5,389.5C 318.167,389.5 192.833,389.5 67.5,389.5C 67.5,300.5 67.5,211.5 67.5,122.5 Z M 251.5,210.5 C 254.167,210.5 256.833,210.5 259.5,210.5C 259.835,216.716 262.502,221.55 267.5,225C 274.412,227.125 281.079,229.792 287.5,233C 293.214,233.541 298.381,232.041 303,228.5C 304.333,229.833 305.667,231.167 307,232.5C 306.626,235.275 305.626,237.942 304,240.5C 303.333,243.833 303.333,247.167 304,250.5C 307.39,257.336 310.39,264.336 313,271.5C 316.361,274.263 320.195,276.097 324.5,277C 325.777,279.466 325.777,281.966 324.5,284.5C 319.518,285.433 315.351,287.767 312,291.5C 310.143,298.209 307.476,304.543 304,310.5C 303.333,313.833 303.333,317.167 304,320.5C 305.626,323.058 306.626,325.725 307,328.5C 305.611,330.227 303.944,331.561 302,332.5C 299.44,331.47 296.94,330.303 294.5,329C 291.833,328.333 289.167,328.333 286.5,329C 281.145,332.118 275.478,334.451 269.5,336C 263.046,339.057 259.713,344.224 259.5,351.5C 256.833,351.5 254.167,351.5 251.5,351.5C 251.292,344.236 247.958,339.069 241.5,336C 235.522,334.451 229.855,332.118 224.5,329C 221.833,328.333 219.167,328.333 216.5,329C 214.06,330.303 211.56,331.47 209,332.5C 207.056,331.561 205.389,330.227 204,328.5C 204.374,325.725 205.374,323.058 207,320.5C 207.667,317.167 207.667,313.833 207,310.5C 203.524,304.543 200.857,298.209 199,291.5C 195.649,287.767 191.482,285.433 186.5,284.5C 185.223,281.966 185.223,279.466 186.5,277C 190.805,276.097 194.639,274.263 198,271.5C 200.61,264.336 203.61,257.336 207,250.5C 207.667,247.167 207.667,243.833 207,240.5C 205.374,237.942 204.374,235.275 204,232.5C 205.333,231.167 206.667,229.833 208,228.5C 212.619,232.041 217.786,233.541 223.5,233C 229.921,229.792 236.588,227.125 243.5,225C 248.498,221.55 251.165,216.716 251.5,210.5 Z M 253.5,252.5 C 273.452,254.612 283.285,265.612 283,285.5C 278.154,302.344 266.987,309.844 249.5,308C 234.009,303.185 226.842,292.685 228,276.5C 231.539,263.125 240.039,255.125 253.5,252.5 Z M 221.5,445.5 C 244.5,445.5 267.5,445.5 290.5,445.5C 295.564,462.023 301.23,478.357 307.5,494.5C 272.833,495.833 238.167,495.833 203.5,494.5C 209.509,478.138 215.509,461.805 221.5,445.5 Z"/></g>
<g><path style="opacity:0.891" fill="#000000" d="M 119.5,27.5 C 124.179,27.3342 128.845,27.5008 133.5,28C 140.492,34.3417 139.825,39.675 131.5,44C 127.074,44.7907 122.741,44.4573 118.5,43C 114.254,37.4832 114.588,32.3165 119.5,27.5 Z"/></g>
<g><path style="opacity:0.883" fill="#000000" d="M 153.5,27.5 C 158.628,27.1115 163.628,27.6115 168.5,29C 173.089,35.1334 172.089,40.1334 165.5,44C 160.64,44.9679 155.974,44.4679 151.5,42.5C 147.126,36.7846 147.793,31.7846 153.5,27.5 Z"/></g>
<g><path style="opacity:0.881" fill="#000000" d="M 186.5,27.5 C 191.179,27.3342 195.845,27.5008 200.5,28C 204.788,31.7712 205.621,36.2712 203,41.5C 200.129,43.8615 196.796,44.8615 193,44.5C 182.532,43.8919 179.532,38.8919 184,29.5C 184.995,28.9341 185.828,28.2674 186.5,27.5 Z"/></g>
<g><path style="opacity:0.931" fill="#000000" d="M 233.5,27.5 C 286.168,27.3333 338.834,27.5 391.5,28C 395.788,31.7712 396.621,36.2712 394,41.5C 392.829,42.8932 391.329,43.7265 389.5,44C 337.833,44.6667 286.167,44.6667 234.5,44C 228.458,41.1632 226.958,36.6632 230,30.5C 231.145,29.3636 232.312,28.3636 233.5,27.5 Z"/></g>
<g><path style="opacity:0.924" fill="#000000" d="M 262.5,81.5 C 272.157,80.6577 275.99,84.9911 274,94.5C 267,120.5 260,146.5 253,172.5C 250.983,177.924 247.15,179.758 241.5,178C 236.931,175.459 235.431,171.625 237,166.5C 244,140.167 251,113.833 258,87.5C 258.979,85.0324 260.479,83.0324 262.5,81.5 Z"/></g>
<g><path style="opacity:0.917" fill="#000000" d="M 208.5,93.5 C 217.916,94.0087 221.082,98.6754 218,107.5C 208.255,114.623 198.421,121.623 188.5,128.5C 198.164,136.659 207.997,144.659 218,152.5C 221.493,160.181 219.16,164.847 211,166.5C 208.679,166.091 206.513,165.257 204.5,164C 191.376,153.878 178.543,143.378 166,132.5C 163.891,127.486 165.057,123.32 169.5,120C 182.566,111.144 195.566,102.31 208.5,93.5 Z"/></g>
<g><path style="opacity:0.917" fill="#000000" d="M 297.5,93.5 C 300.794,93.259 303.794,94.0924 306.5,96C 319.612,104.779 332.445,113.945 345,123.5C 347,126.5 347,129.5 345,132.5C 332.457,143.378 319.624,153.878 306.5,164C 301.87,167.407 297.37,167.241 293,163.5C 291,159.833 291,156.167 293,152.5C 303.003,144.659 312.836,136.659 322.5,128.5C 312.579,121.623 302.745,114.623 293,107.5C 289.997,101.246 291.497,96.5798 297.5,93.5 Z"/></g>
<g><path style="opacity:0.929" fill="#000000" d="M 253.5,235.5 C 279.199,236.422 294.699,249.422 300,274.5C 301.581,300.858 289.748,317.691 264.5,325C 235.582,328.055 217.748,315.555 211,287.5C 209.841,257.425 224.008,240.091 253.5,235.5 Z M 253.5,252.5 C 240.039,255.125 231.539,263.125 228,276.5C 226.842,292.685 234.009,303.185 249.5,308C 266.987,309.844 278.154,302.344 283,285.5C 283.285,265.612 273.452,254.612 253.5,252.5 Z"/></g>
</svg>
