<?xml version="1.0" standalone="no"?>
<!DOCTYPE svg PUBLIC "-//W3C//DTD SVG 20010904//EN"
 "http://www.w3.org/TR/2001/REC-SVG-20010904/DTD/svg10.dtd">
<svg version="1.0" xmlns="http://www.w3.org/2000/svg"
 width="512.000000pt" height="512.000000pt" viewBox="0 0 512.000000 512.000000"
 preserveAspectRatio="xMidYMid meet">

<g transform="translate(0.000000,512.000000) scale(0.100000,-0.100000)"
fill="#000000" stroke="none">
<path d="M1900 4372 c0 -309 -3 -389 -16 -437 -31 -123 -108 -216 -222 -273
l-76 -37 -408 -3 -408 -3 0 -1554 c0 -1076 3 -1562 11 -1582 15 -40 48 -73 94
-94 38 -18 107 -19 1685 -19 1578 0 1647 1 1685 19 46 21 79 54 94 94 15 40
15 4114 0 4154 -15 40 -48 73 -94 94 -38 18 -93 19 -1192 19 l-1153 0 0 -378z
m1298 55 c7 -59 24 -57 -514 -57 -434 0 -494 2 -508 16 -19 18 -21 45 -4 62 9
9 133 12 518 10 l505 -3 3 -28z m-716 -259 c26 -22 29 -47 8 -68 -18 -18 -34
-20 -157 -20 -113 0 -140 3 -155 17 -24 22 -23 49 4 67 29 21 275 23 300 4z
m369 2 c12 -7 19 -21 19 -40 0 -39 -23 -50 -104 -50 -53 0 -70 4 -86 20 -11
11 -20 25 -20 30 0 6 9 19 20 30 16 16 33 20 86 20 36 0 74 -5 85 -10z m34
-1035 c149 -24 348 -103 421 -167 72 -63 94 -159 55 -243 -53 -116 -167 -144
-314 -79 -122 54 -213 74 -331 74 -262 0 -419 -116 -481 -355 -31 -121 -11
-315 43 -422 29 -55 97 -129 146 -158 161 -94 391 -98 589 -9 150 67 218 67
294 1 87 -76 96 -200 22 -290 -57 -70 -290 -167 -459 -193 -527 -79 -967 203
-1070 684 -27 128 -33 226 -20 341 42 383 260 669 594 780 52 17 118 35 148
40 85 14 265 12 363 -4z m-1531 -581 c9 -8 16 -23 16 -32 0 -9 -64 -81 -142
-159 l-142 -143 142 -143 c86 -87 142 -151 142 -163 0 -26 -19 -44 -44 -44
-24 0 -356 326 -356 349 0 21 331 351 351 351 10 0 25 -7 33 -16z m2629 -152
c92 -93 167 -175 167 -183 0 -23 -332 -349 -355 -349 -26 0 -45 18 -45 44 0
12 56 76 142 163 l142 143 -142 143 c-78 78 -142 150 -142 159 0 22 27 48 49
48 9 0 92 -76 184 -168z"/>
<path d="M2510 3046 c-209 -47 -384 -158 -489 -309 -47 -69 -98 -181 -123
-272 -19 -69 -22 -105 -22 -255 0 -162 2 -182 28 -265 44 -146 98 -238 196
-335 100 -100 166 -141 298 -186 247 -85 524 -61 772 65 111 56 145 120 103
192 -20 33 -85 63 -117 53 -11 -4 -62 -24 -112 -45 -132 -56 -223 -73 -369
-66 -177 7 -298 56 -401 164 -100 104 -148 242 -148 428 -1 260 101 446 294
537 105 50 167 63 300 62 135 -1 215 -19 341 -75 48 -22 99 -39 113 -39 100 0
150 124 78 192 -55 53 -225 125 -355 152 -91 19 -305 20 -387 2z"/>
<path d="M1315 4190 l-480 -481 365 3 c358 3 366 3 411 26 107 53 170 137 188
252 12 74 15 680 3 680 -4 0 -223 -216 -487 -480z"/>
</g>
</svg>
