<?xml version="1.0" standalone="no"?>
<!DOCTYPE svg PUBLIC "-//W3C//DTD SVG 20010904//EN"
 "http://www.w3.org/TR/2001/REC-SVG-20010904/DTD/svg10.dtd">
<svg version="1.0" xmlns="http://www.w3.org/2000/svg"
 width="512.000000pt" height="512.000000pt" viewBox="0 0 512.000000 512.000000"
 preserveAspectRatio="xMidYMid meet">

<g transform="translate(0.000000,512.000000) scale(0.100000,-0.100000)"
fill="#000000" stroke="none">
<path d="M412 5103 c-43 -21 -80 -66 -87 -106 -10 -53 373 -4386 391 -4423 21
-43 51 -68 104 -87 84 -30 1717 -487 1740 -487 26 0 1752 485 1781 500 41 23
69 75 79 151 5 41 93 1030 196 2199 208 2371 197 2172 121 2234 l-39 31 -2126
2 c-1943 2 -2130 1 -2160 -14z m4048 -334 c0 -31 -334 -3859 -345 -3955 l-6
-51 -775 -218 -774 -219 -775 219 -774 218 -6 41 c-8 66 -345 3931 -345 3965
l0 31 1900 0 1900 0 0 -31z"/>
<path d="M1375 4146 c-94 -41 -124 -168 -58 -247 53 -62 -5 -59 1144 -59
l1052 0 -6 -47 c-3 -27 -18 -243 -34 -480 l-27 -433 -1012 -2 c-1005 -3 -1013
-3 -1040 -24 -53 -39 -69 -71 -69 -134 0 -63 16 -95 69 -134 27 -21 35 -21
1027 -24 l999 -2 0 -28 c0 -71 -53 -808 -58 -813 -4 -4 -186 -66 -404 -139
l-398 -132 -399 133 -400 133 -3 131 c-3 127 -4 133 -32 169 -68 90 -190 86
-260 -8 -19 -25 -21 -44 -24 -226 -3 -181 -1 -204 17 -244 12 -28 33 -53 53
-66 40 -24 1014 -350 1048 -350 34 0 1008 326 1048 350 63 39 68 64 96 495 15
215 33 485 41 600 8 116 33 491 56 835 46 702 47 670 -27 726 l-37 29 -1166 2
c-954 2 -1172 0 -1196 -11z"/>
</g>
</svg>
