<?xml version="1.0" standalone="no"?>
<!DOCTYPE svg PUBLIC "-//W3C//DTD SVG 20010904//EN"
 "http://www.w3.org/TR/2001/REC-SVG-20010904/DTD/svg10.dtd">
<svg version="1.0" xmlns="http://www.w3.org/2000/svg"
 width="512.000000pt" height="512.000000pt" viewBox="0 0 512.000000 512.000000"
 preserveAspectRatio="xMidYMid meet">

<g transform="translate(0.000000,512.000000) scale(0.100000,-0.100000)"
fill="#000000" stroke="none">
<path d="M152 4944 c-65 -32 -118 -93 -137 -158 -23 -75 -23 -3347 0 -3422 19
-65 72 -126 137 -158 l52 -26 818 0 818 0 0 -285 0 -285 -147 -70 c-81 -39
-155 -78 -165 -87 -16 -14 -18 -33 -18 -143 0 -110 2 -129 18 -143 17 -16 103
-17 1035 -17 l1016 0 15 22 c12 17 16 50 16 144 0 104 -3 123 -18 137 -10 9
-84 48 -165 87 l-147 71 0 284 0 285 818 0 818 0 52 26 c65 32 118 93 137 158
23 75 23 3347 0 3422 -19 65 -72 126 -137 158 l-52 26 -2356 0 -2356 0 -52
-26z m4774 -120 c15 -11 37 -33 48 -48 21 -27 21 -31 24 -1437 l2 -1409 -2440
0 -2440 0 0 1378 c1 757 5 1396 9 1420 10 48 41 88 86 108 25 11 433 13 2357
11 l2327 -2 27 -21z m-2220 -3081 c22 -11 53 -39 69 -62 27 -38 30 -51 30
-116 0 -65 -3 -78 -30 -116 -77 -109 -233 -117 -319 -17 -94 109 -45 285 91
328 42 14 116 6 159 -17z m444 -848 l0 -285 -590 0 -590 0 0 285 0 285 590 0
590 0 0 -285z"/>
<path d="M672 4584 c-33 -23 -28 -83 8 -101 20 -10 405 -12 1893 -10 1837 2
1869 2 1883 21 21 30 18 72 -8 90 -20 14 -216 16 -1888 16 -1691 0 -1868 -1
-1888 -16z"/>
<path d="M3114 4210 c-11 -4 -26 -21 -32 -37 -79 -196 -582 -1551 -582 -1568
0 -48 70 -74 103 -37 20 23 597 1561 597 1594 0 27 -28 58 -51 57 -8 0 -23 -4
-35 -9z"/>
<path d="M1672 3894 c-14 -9 -22 -26 -22 -44 0 -15 47 -125 105 -244 l104
-217 -111 -223 c-119 -240 -125 -264 -73 -288 44 -20 70 2 121 104 25 51 67
131 92 177 l45 84 85 -169 c46 -93 91 -177 100 -186 33 -39 102 -10 102 42 0
13 -48 121 -106 240 l-106 217 111 221 c61 122 111 230 111 240 0 20 -24 45
-50 54 -38 13 -58 -12 -150 -192 l-94 -182 -89 179 c-49 98 -96 184 -105 191
-21 16 -43 15 -70 -4z"/>
<path d="M715 3884 c-14 -15 -16 -57 -13 -388 3 -366 3 -372 26 -418 77 -155
242 -235 400 -194 108 27 190 96 239 201 l28 60 3 351 c3 327 2 352 -15 371
-28 32 -56 36 -86 12 l-27 -20 0 -350 c0 -389 -1 -393 -67 -461 -106 -109
-284 -78 -359 62 -17 32 -19 69 -24 403 -5 400 -3 387 -62 387 -15 0 -34 -7
-43 -16z"/>
<path d="M3365 3876 c-14 -21 -16 -66 -13 -383 3 -322 5 -362 22 -398 52 -113
132 -182 245 -211 159 -40 328 41 399 193 l27 58 3 359 c3 396 2 406 -57 406
-59 0 -59 -1 -63 -385 -3 -336 -4 -352 -25 -390 -77 -143 -257 -172 -365 -58
-56 59 -58 72 -58 440 0 380 -1 386 -62 391 -30 3 -40 -1 -53 -22z"/>
<path d="M4327 3882 c-15 -17 -17 -66 -17 -500 l0 -481 22 -15 c30 -21 54 -20
78 4 19 19 20 33 20 493 0 411 -2 475 -16 495 -19 27 -64 29 -87 4z"/>
<path d="M680 2277 c-19 -9 -26 -22 -28 -49 -6 -74 -174 -68 1908 -68 1672 0
1868 2 1888 16 26 18 29 60 8 90 -14 19 -46 19 -1883 21 -1488 2 -1873 0
-1893 -10z"/>
<path d="M2525 1658 c-63 -58 -54 -154 17 -198 126 -77 258 92 154 196 -30 30
-40 34 -85 34 -44 0 -56 -5 -86 -32z"/>
</g>
</svg>
