<?xml version="1.0" standalone="no"?>
<!DOCTYPE svg PUBLIC "-//W3C//DTD SVG 20010904//EN"
 "http://www.w3.org/TR/2001/REC-SVG-20010904/DTD/svg10.dtd">
<svg version="1.0" xmlns="http://www.w3.org/2000/svg"
 width="512.000000pt" height="512.000000pt" viewBox="0 0 512.000000 512.000000"
 preserveAspectRatio="xMidYMid meet">

<g transform="translate(0.000000,512.000000) scale(0.100000,-0.100000)"
fill="#000000" stroke="none">
<path d="M234 5088 c3 -18 129 -971 281 -2118 152 -1147 277 -2088 278 -2092
1 -4 399 -204 885 -443 l883 -435 717 364 c394 200 790 400 880 446 90 45 165
87 167 93 3 7 128 943 280 2082 151 1139 277 2085 280 2103 l6 32 -2332 0
-2331 0 6 -32z m4066 -482 c0 -6 -430 -3349 -433 -3364 -2 -14 -1281 -672
-1306 -672 -16 0 -1281 617 -1297 634 -10 10 -465 3324 -464 3384 l0 22 1750
0 c963 0 1750 -2 1750 -4z"/>
<path d="M1387 4093 c-3 -6 196 -1513 202 -1530 1 -2 316 -3 701 -3 l700 0 0
-23 c0 -13 -16 -158 -35 -323 -19 -164 -35 -304 -35 -309 0 -6 -81 -51 -180
-100 l-180 -90 -179 90 -180 89 -10 61 c-6 34 -11 69 -11 78 0 15 -24 17 -255
17 l-255 0 0 -22 c0 -13 16 -121 35 -242 19 -120 35 -220 35 -222 0 -2 185
-96 410 -209 l410 -205 410 205 c226 113 410 207 410 209 0 2 45 336 100 741
55 405 100 743 100 751 0 12 -119 14 -765 14 l-765 0 -4 23 c-3 12 -19 117
-36 232 -17 116 -33 220 -35 233 l-5 22 845 0 c465 0 845 3 846 8 0 4 17 117
38 252 21 135 36 248 34 253 -2 4 -530 7 -1173 7 -643 0 -1171 -3 -1173 -7z"/>
</g>
</svg>
