<?xml version="1.0" standalone="no"?>
<!DOCTYPE svg PUBLIC "-//W3C//DTD SVG 20010904//EN"
 "http://www.w3.org/TR/2001/REC-SVG-20010904/DTD/svg10.dtd">
<svg version="1.0" xmlns="http://www.w3.org/2000/svg"
 width="512.000000pt" height="512.000000pt" viewBox="0 0 512.000000 512.000000"
 preserveAspectRatio="xMidYMid meet">

<g transform="translate(0.000000,512.000000) scale(0.100000,-0.100000)"
fill="#000000" stroke="none">
<path d="M374 5105 c-34 -7 -85 -25 -115 -40 -69 -35 -169 -135 -203 -204 -58
-114 -56 -2 -56 -2301 0 -2299 -2 -2187 56 -2301 34 -69 134 -169 203 -203
104 -53 136 -56 764 -56 l577 0 0 160 0 160 -589 2 c-578 3 -590 3 -617 24
-15 11 -37 33 -48 48 l-21 27 0 2139 0 2139 21 27 c11 15 33 37 48 48 27 21
33 21 1256 24 l1229 2 3 -357 3 -358 26 -56 c33 -71 87 -125 158 -158 l56 -26
358 -3 357 -3 0 -239 0 -240 160 0 160 0 0 335 c0 266 -3 342 -14 368 -18 41
-1012 1033 -1049 1047 -46 16 -2644 12 -2723 -5z"/>
<path d="M1375 2546 c-37 -17 -70 -52 -84 -89 -8 -19 -11 -267 -11 -763 l0
-734 160 0 160 0 0 239 0 240 278 3 c275 3 277 3 333 29 71 33 125 87 158 158
l26 56 0 315 0 315 -26 56 c-33 71 -87 125 -158 158 l-56 26 -375 2 c-298 2
-381 0 -405 -11z m705 -546 l0 -240 -240 0 -240 0 0 240 0 240 240 0 240 0 0
-240z"/>
<path d="M2560 1760 l0 -800 160 0 160 0 0 320 0 320 320 0 320 0 0 -320 0
-320 160 0 160 0 0 800 0 800 -160 0 -160 0 0 -320 0 -320 -320 0 -320 0 0
320 0 320 -160 0 -160 0 0 -800z"/>
<path d="M4095 2546 c-37 -17 -70 -52 -84 -89 -8 -19 -11 -267 -11 -763 l0
-734 160 0 160 0 0 239 0 240 278 3 c275 3 277 3 333 29 71 33 125 87 158 158
l26 56 0 315 0 315 -26 56 c-33 71 -87 125 -158 158 l-56 26 -375 2 c-298 2
-381 0 -405 -11z m705 -546 l0 -240 -240 0 -240 0 0 240 0 240 240 0 240 0 0
-240z"/>
</g>
</svg>
