<?xml version="1.0" standalone="no"?>
<!DOCTYPE svg PUBLIC "-//W3C//DTD SVG 20010904//EN"
 "http://www.w3.org/TR/2001/REC-SVG-20010904/DTD/svg10.dtd">
<svg version="1.0" xmlns="http://www.w3.org/2000/svg"
 width="512.000000pt" height="512.000000pt" viewBox="0 0 512.000000 512.000000"
 preserveAspectRatio="xMidYMid meet">

<g transform="translate(0.000000,512.000000) scale(0.100000,-0.100000)"
fill="#000000" stroke="none">
<path d="M712 4836 c-207 -51 -389 -237 -431 -445 -16 -75 -16 -3588 0 -3663
6 -29 29 -90 50 -135 73 -153 233 -278 397 -312 36 -8 346 -11 966 -11 l913 0
33 23 c48 32 72 69 77 119 7 58 -23 118 -74 149 l-38 24 -915 5 c-858 5 -917
6 -951 23 -47 23 -103 79 -126 126 -17 34 -18 104 -21 1384 l-2 1347 1970 0
1969 0 3 -477 3 -478 24 -38 c31 -51 91 -81 149 -74 50 5 87 29 120 77 l22 33
0 551 c1 1040 -1 1279 -11 1330 -32 153 -155 315 -295 388 -138 72 -2 68
-1989 67 -1418 -1 -1801 -3 -1843 -13z m3669 -329 c47 -23 103 -79 126 -126
16 -32 18 -69 21 -313 l3 -278 -1971 0 -1970 0 0 264 c0 172 4 275 12 297 24
73 88 138 162 166 23 9 464 11 1806 10 1693 -2 1777 -3 1811 -20z"/>
<path d="M895 4306 c-97 -43 -124 -171 -54 -251 43 -49 82 -57 246 -53 125 3
145 5 170 24 98 73 98 195 0 268 -25 19 -44 21 -180 23 -111 2 -160 -1 -182
-11z"/>
<path d="M1650 4309 c-90 -37 -129 -153 -77 -229 48 -71 60 -75 242 -75 179 0
190 3 239 69 29 39 29 133 0 172 -48 64 -62 69 -227 71 -87 1 -163 -2 -177 -8z"/>
<path d="M2376 4297 c-109 -61 -106 -221 5 -277 33 -17 59 -20 179 -20 120 0
146 3 179 20 113 57 113 223 0 280 -33 17 -58 20 -181 20 -129 0 -147 -2 -182
-23z"/>
<path d="M3085 2910 c-225 -49 -406 -147 -567 -306 -140 -140 -243 -317 -296
-511 -24 -90 -26 -114 -26 -283 1 -202 9 -249 73 -415 101 -263 328 -494 598
-610 232 -100 501 -118 741 -49 95 27 247 96 317 144 24 16 47 30 52 30 4 0
149 -141 323 -314 210 -210 324 -317 343 -322 44 -10 112 1 145 24 56 41 80
139 48 200 -8 15 -152 164 -320 332 -168 168 -306 309 -306 313 0 5 14 28 30
52 48 70 117 222 144 317 68 236 51 502 -44 731 -134 323 -417 567 -760 657
-124 32 -370 38 -495 10z m450 -330 c196 -63 352 -183 454 -353 82 -135 115
-257 114 -422 -2 -362 -244 -672 -598 -766 -95 -25 -266 -30 -360 -10 -285 61
-514 271 -605 556 -34 106 -39 292 -11 407 71 299 292 523 590 599 107 27 315
21 416 -11z"/>
</g>
</svg>
