<?xml version="1.0" standalone="no"?>
<!DOCTYPE svg PUBLIC "-//W3C//DTD SVG 20010904//EN"
 "http://www.w3.org/TR/2001/REC-SVG-20010904/DTD/svg10.dtd">
<svg version="1.0" xmlns="http://www.w3.org/2000/svg"
 width="512.000000pt" height="512.000000pt" viewBox="0 0 512.000000 512.000000"
 preserveAspectRatio="xMidYMid meet">

<g transform="translate(0.000000,512.000000) scale(0.100000,-0.100000)"
fill="#000000" stroke="none">
<path d="M1043 4666 l-28 -24 -3 -316 -3 -316 -204 0 c-210 0 -246 -5 -264
-39 -8 -13 -11 -444 -11 -1367 l-1 -1347 22 -24 22 -23 780 0 780 0 -7 -57
c-19 -166 -128 -385 -267 -538 -32 -36 -60 -73 -60 -83 -3 -40 3 -58 27 -79
l25 -23 709 0 709 0 25 23 c24 21 30 39 27 79 0 10 -28 47 -60 83 -139 153
-248 372 -267 538 l-7 57 780 0 780 0 22 23 22 24 -1 1347 c0 923 -3 1354 -11
1367 -18 34 -54 39 -264 39 l-204 0 -3 316 -3 316 -28 24 -28 24 -1489 0
-1489 0 -28 -24z m2897 -271 l0 -135 -1380 0 -1380 0 0 135 0 135 1380 0 1380
0 0 -135z m0 -1285 l0 -990 -1380 0 -1380 0 0 990 0 990 1380 0 1380 0 0 -990z
m-2928 -186 l3 -916 28 -24 28 -24 1489 0 1489 0 28 24 28 24 3 916 2 916 160
0 160 0 0 -1010 0 -1010 -1870 0 -1870 0 0 1010 0 1010 160 0 160 0 2 -916z
m3418 -1409 l0 -145 -1870 0 -1870 0 0 145 0 145 1870 0 1870 0 0 -145z
m-1606 -352 c22 -155 110 -380 200 -512 20 -29 36 -55 36 -57 0 -2 -225 -4
-500 -4 -275 0 -500 2 -500 4 0 2 16 28 36 57 90 132 178 357 200 512 l6 47
258 0 258 0 6 -47z"/>
<path d="M3199 4451 c-36 -36 -37 -70 -5 -108 20 -23 32 -28 71 -28 39 0 51 5
71 28 34 39 31 79 -7 111 -43 36 -91 35 -130 -3z"/>
<path d="M3429 4451 c-36 -36 -37 -70 -5 -108 20 -23 32 -28 71 -28 39 0 51 5
71 28 75 88 -55 190 -137 108z"/>
<path d="M3659 4451 c-36 -36 -37 -70 -5 -108 51 -59 166 -24 166 51 -1 80
-102 116 -161 57z"/>
<path d="M2670 3791 c-19 -11 -46 -30 -59 -44 -14 -16 -104 -232 -229 -549
-200 -506 -206 -525 -207 -595 0 -65 3 -74 31 -110 45 -56 88 -77 154 -78 66
0 121 25 154 69 13 17 117 270 231 561 197 505 207 533 203 587 -5 72 -41 128
-100 157 -55 26 -130 27 -178 2z m110 -156 c11 -13 -20 -99 -185 -523 -109
-279 -202 -513 -208 -519 -13 -17 -46 -16 -53 1 -5 12 317 856 386 1014 20 44
39 53 60 27z"/>
<path d="M1885 3649 c-46 -23 -478 -390 -509 -431 -13 -18 -21 -49 -24 -88 -8
-104 3 -117 257 -332 123 -105 239 -201 258 -214 69 -47 163 -39 229 18 47 42
67 83 68 143 1 81 -25 117 -175 244 -74 63 -135 117 -137 121 -1 4 58 57 132
120 152 128 179 165 179 246 0 143 -153 238 -278 173z m103 -148 c27 -17 5
-47 -103 -139 -233 -199 -245 -211 -245 -243 0 -17 4 -38 9 -47 5 -10 86 -83
181 -162 131 -110 170 -149 168 -165 -7 -48 -42 -27 -263 160 -121 102 -221
194 -223 204 -2 13 63 74 223 209 125 106 230 192 233 192 4 0 13 -4 20 -9z"/>
<path d="M3059 3647 c-71 -38 -116 -125 -103 -198 12 -65 46 -107 180 -219 74
-63 133 -116 132 -120 -2 -4 -63 -58 -137 -121 -150 -127 -176 -163 -175 -244
1 -60 21 -101 68 -143 66 -58 160 -65 231 -16 20 13 136 109 258 213 252 213
263 227 255 331 -3 39 -11 70 -24 88 -32 42 -464 409 -510 432 -54 27 -120 26
-175 -3z m332 -333 c156 -133 219 -192 217 -205 -2 -10 -102 -102 -223 -204
-221 -187 -256 -208 -263 -160 -2 16 38 55 168 165 94 79 176 152 181 161 5
10 9 31 9 46 0 34 -22 57 -222 227 -87 73 -138 124 -138 135 0 21 17 32 38 25
7 -2 112 -88 233 -190z"/>
<path d="M2334 1586 c-33 -15 -44 -33 -44 -71 0 -77 27 -85 270 -85 244 0 270
8 270 86 0 38 -16 61 -51 73 -48 17 -406 14 -445 -3z"/>
</g>
</svg>
