<?xml version="1.0" encoding="UTF-8"?>
<!DOCTYPE svg PUBLIC "-//W3C//DTD SVG 1.1//EN" "http://www.w3.org/Graphics/SVG/1.1/DTD/svg11.dtd">
<svg xmlns="http://www.w3.org/2000/svg" version="1.1" width="512px" height="512px" style="shape-rendering:geometricPrecision; text-rendering:geometricPrecision; image-rendering:optimizeQuality; fill-rule:evenodd; clip-rule:evenodd" xmlns:xlink="http://www.w3.org/1999/xlink">
<g><path style="opacity:0.976" fill="#000000" d="M 83.5,-0.5 C 167.833,-0.5 252.167,-0.5 336.5,-0.5C 340.104,2.60153 343.604,5.93487 347,9.5C 378.707,45.5384 410.041,81.8717 441,118.5C 441.5,139.831 441.667,161.164 441.5,182.5C 450.016,181.885 458.349,182.718 466.5,185C 474.644,189.143 479.811,195.643 482,204.5C 482.167,231.667 482.333,258.833 482.5,286C 482.655,314.227 482.155,342.393 481,370.5C 477.833,379 472,384.833 463.5,388C 456.254,389.391 448.921,389.891 441.5,389.5C 441.667,425.168 441.5,460.835 441,496.5C 438.71,503.617 434.21,508.617 427.5,511.5C 312.833,511.5 198.167,511.5 83.5,511.5C 76.7903,508.617 72.2903,503.617 70,496.5C 69.5,460.835 69.3333,425.168 69.5,389.5C 56.1259,392.214 44.6259,388.881 35,379.5C 33.0797,376.661 31.4131,373.661 30,370.5C 28.8454,342.393 28.3454,314.227 28.5,286C 28.6667,258.833 28.8333,231.667 29,204.5C 32.1667,193.333 39.3333,186.167 50.5,183C 56.8246,182.5 63.1579,182.334 69.5,182.5C 69.3333,126.499 69.5,70.499 70,14.5C 72.2903,7.38267 76.7903,2.38267 83.5,-0.5 Z M 90.5,20.5 C 167.5,20.5 244.5,20.5 321.5,20.5C 321.026,56.2153 321.526,91.8819 323,127.5C 324.543,129.378 326.376,130.878 328.5,132C 359.165,132.5 389.832,132.667 420.5,132.5C 420.5,149.167 420.5,165.833 420.5,182.5C 310.5,182.5 200.5,182.5 90.5,182.5C 90.5,128.5 90.5,74.5 90.5,20.5 Z M 67.5,213.5 C 78.505,213.333 89.505,213.5 100.5,214C 108.144,229.454 115.644,244.954 123,260.5C 129.474,244.716 136.641,229.216 144.5,214C 155.5,213.333 166.5,213.333 177.5,214C 164.771,235.293 152.438,256.793 140.5,278.5C 152.978,301.455 165.978,324.122 179.5,346.5C 168.167,347.833 156.833,347.833 145.5,346.5C 137.484,330.469 129.484,314.469 121.5,298.5C 113.795,314.596 106.461,330.929 99.5,347.5C 88.1618,347.667 76.8284,347.5 65.5,347C 78.7528,324.496 91.7528,301.83 104.5,279C 91.5097,257.517 79.1764,235.684 67.5,213.5 Z M 203.5,213.5 C 216.833,213.5 230.167,213.5 243.5,213.5C 252.624,244.333 260.957,275.333 268.5,306.5C 276.423,275.478 285.589,244.812 296,214.5C 309.087,213.511 322.254,213.177 335.5,213.5C 337.553,258.182 339.887,302.849 342.5,347.5C 332.833,347.5 323.167,347.5 313.5,347.5C 312.381,311.826 311.048,276.16 309.5,240.5C 299.47,274.945 288.97,309.279 278,343.5C 274.082,344.151 270.082,344.484 266,344.5C 261.74,344.461 257.74,343.794 254,342.5C 244.224,308.727 235.39,274.727 227.5,240.5C 225.326,276.17 223.326,311.836 221.5,347.5C 212.5,347.5 203.5,347.5 194.5,347.5C 197.5,302.83 200.5,258.163 203.5,213.5 Z M 366.5,213.5 C 376.5,213.5 386.5,213.5 396.5,213.5C 396.5,249.833 396.5,286.167 396.5,322.5C 414.5,322.5 432.5,322.5 450.5,322.5C 450.5,330.833 450.5,339.167 450.5,347.5C 422.5,347.5 394.5,347.5 366.5,347.5C 366.5,302.833 366.5,258.167 366.5,213.5 Z M 90.5,389.5 C 200.5,389.5 310.5,389.5 420.5,389.5C 420.5,421.5 420.5,453.5 420.5,485.5C 310.5,485.5 200.5,485.5 90.5,485.5C 90.5,453.5 90.5,421.5 90.5,389.5 Z"/></g>
</svg>
